# xmcd
#
# Track frame offsets:
# 187
# 14592
# 28215
# 41302
# 55055
# 69722
# 83790
# 98282
# 112060
# 126367
# 139597
# 151165
# 164530
# 178665
# 193557
# 206972
# 220120
# 234495
# 249310
# 263015
#
# Disc length: 3695 seconds
#
# Revision: 0
# Processed by: cddbd v1.4PL0 Copyright (c) Steve Scherf et al.
# Submitted via: Audion 3.0.2 (http://www.panic.com/audion/)
#
DISCID=150e6d14
DTITLE=Charley Patton - The Voice of the Delta [CD 2/2)
DYEAR=1900
DGENRE=
TTITLE0=Green River Blues
TTITLE1=Elder Greene Blues
TTITLE2=Jesus Is a Dying Bedmaker
TTITLE3=I Shall Not Be Moved
TTITLE4=Hammer Blues
TTITLE5=When Your Way Gets Dark
TTITLE6=Moon Going Down
TTITLE7=Going to Move to Alabama
TTITLE8=Some Happy Day
TTITLE9=You're Going to Need Somebody When You Die
TTITLE10=Circle Round the Moon
TTITLE11=Devil Sent the Rain
TTITLE12=Bird Nest Bound
TTITLE13=Dry Well Blues
TTITLE14=Jim Lee Blues (part 1)
TTITLE15=Some Summer Day
TTITLE16=Frankie and Albert
TTITLE17=Some of These Days
TTITLE18=Jim Lee Blues (part 2)
TTITLE19=Joe Kirby
EXTD=
EXTT0=
EXTT1=
EXTT2=
EXTT3=
EXTT4=
EXTT5=
EXTT6=
EXTT7=
EXTT8=
EXTT9=
EXTT10=
EXTT11=
EXTT12=
EXTT13=
EXTT14=
EXTT15=
EXTT16=
EXTT17=
EXTT18=
EXTT19=
PLAYORDER=
